<svg xmlns="http://www.w3.org/2000/svg" fill="none" viewBox="0 0 48 45"><path fill="#FDE047" d="M43.62 44.12c-.09-.02-.3-.12-.47-.22A19.09 19.09 0 0 0 27 42.25c-1.03.36-2.25.93-3.53 1.66-.34.2-.38.21-.66.21-.27 0-.3-.01-.65-.2a18.97 18.97 0 0 0-19.47-.14c-.55.32-.67.35-1.03.33-.44-.03-.74-.25-.93-.7-.08-.17-.08-.23-.1-3.33v-3.16l.16-.43c.18-.47.25-.55.66-.71.2-.08.26-.08 2.72-.06l2.5.03v-5.24l.15-.39c.17-.42.24-.5.63-.65.58-.23 3-.2 4.7.06a19 19 0 0 1 10.34 5.22c.16.16.3.3.32.3.02 0 .16-.14.32-.3.66-.65 1.66-1.47 2.59-2.11a18.73 18.73 0 0 1 11.5-3.3c.72.04.83.06 1.02.15.34.16.43.25.58.56l.14.3v5.4l2.56-.01 2.56-.02.24.12c.14.06.27.15.3.19.03.03.13.25.22.48l.16.4v6.01l-.12.34c-.07.18-.18.4-.24.5a1 1 0 0 1-1 .36ZM3.1 40.94c.6-.32 2.34-1 3.25-1.26.37-.1.4-.12.37-.2a5.9 5.9 0 0 1-.04-.7l-.02-.63-.3-.03c-.16-.01-1-.03-1.88-.03H2.9v1.47c0 .8.01 1.46.02 1.46s.1-.03.18-.08Zm39.63-1.38v-1.47h-1.59c-.87 0-1.71.02-1.88.03l-.3.03-.01.62c-.01.34-.03.66-.05.71-.02.08 0 .1.14.14a21.06 21.06 0 0 1 3.66 1.4c.01 0 .03-.65.03-1.46Zm-21.03-.96v-1.31l-.58-.6A15.66 15.66 0 0 0 9 31.76l-.12.02V37.9l.43-.03c.92-.05 5.86-.08 6.5-.03a10.34 10.34 0 0 1 5.57 1.88c.13.1.25.19.27.19.01 0 .03-.59.03-1.31Zm2.6 1.07a9.28 9.28 0 0 1 3.82-1.61c1.18-.22 1.37-.23 4.7-.23 1.7 0 3.28.02 3.5.04l.4.02V31.78l-.14-.02a15.66 15.66 0 0 0-12.07 4.93l-.58.6v1.3c0 .73.01 1.32.02 1.32s.17-.1.34-.24Zm6.16-.65c.56-.07.67-.1.26-.08-.37.03-.75.1-.82.15a9.95 9.95 0 0 1 .57-.07Zm-14.92.02a3.2 3.2 0 0 0-.42-.05l-.27-.02.31.05c.37.06.59.08.38.02Zm24.14-2.8-.98-.27-.85-.23.01-.77c.03-1.2.12-1.85.28-1.85 2.25-4.83 3.25-10.37 2.13-15.64a6.55 6.55 0 0 0-.4-1.38c-.04.05-.86.29-1.65.47-1.05.24-2.5.5-4.04.7l-.21.04.02.25A45.07 45.07 0 0 1 34 26.5c0 .22-.19 1.45-.22 1.49-.03.03-9.93 2.27-10 2.29l-.1.02v-3.8c0-3.6.01-3.8.07-3.78.32.13 8.36 3.12 8.4 3.12.04 0 .09-.51.17-1.78.08-1.29.04-3.68-.08-5.2a29.77 29.77 0 0 0-2.43-9.88c-1.33-2.86-3.01-4.83-4.88-5.68-3.8-1.74-7.72 1.25-9.97 7.62a33.07 33.07 0 0 0-1.71 8.98c-.11 1.7 0 5.73.15 5.73l3.99-1.5 3.96-1.5.01 1.94v5.79l-3.81-.92c-1.95-.43-3.88-.98-5.84-1.4-.46-.1-.54-.12-.56-.2a31.97 31.97 0 0 1-.44-6.3c.02-1.62.06-2.32.21-3.6.04-.3.06-.57.04-.59a3.04 3.04 0 0 0-.46-.08 45.6 45.6 0 0 1-5.4-.96c-.06 0-.07.04-.32 1.09C2.55 26.54 8.18 35 7.76 35.7c-3.94 1.5-1.38.7-2.7.7-1.76-4.79-3.44-9.52-3.41-14.73.02-1.7.15-2.85.46-4.33a22.6 22.6 0 0 1 4.05-8.91 20.92 20.92 0 0 1 9.74-7.18 19.76 19.76 0 0 1 9.55-.9c6.68 1 12.49 5.33 15.61 11.66a22.89 22.89 0 0 1 2.25 8.1c.39 4.09-.87 11.37-3.45 16.17l-.2-.05Zm.04-20.7c-.04-.1-.07-.18-.08-.17 0 0 .01.1.05.2.03.12.07.2.08.19l-.05-.21ZM11.64 13.9a25.4 25.4 0 0 1 4.55-9.84 18.72 18.72 0 0 0-4.14 2.27 19.41 19.41 0 0 0-6.01 7.4c.03.04 1.6.36 2.3.48.63.1 1.82.28 2.81.4.15.02.29.03.3.02.01-.02.1-.34.19-.73Zm22.93.58c1.6-.23 3.18-.54 4.14-.83l.2-.06-.22-.44a18.97 18.97 0 0 0-8.78-8.63c-.11-.05-.11-.05-.05.04.47.76.62 1.02.91 1.56a29.07 29.07 0 0 1 2.7 8c.1.52.09.5.23.48l.87-.12Zm13 17.52c0-.03.07-.04.13-.04s.12.01.12.04c0 .02-.07.04-.14.04-.09 0-.13-.02-.12-.04ZM26.2 21.05c-3.38-1.26-3.48-1.3-3.77-1.3-.29 0-.37.03-3.63 1.27l-3.4 1.3c-.07.02-.08-.04-.06-1.52.01-1.22.03-1.59.07-1.75a3.21 3.21 0 0 1 2.14-2.08c.7-.24.6-.23 4.98-.23 3.7 0 4.07 0 4.38.07 1.43.3 2.45 1.16 2.72 2.29.05.2.06.5.05 1.75l-.01 1.5-3.47-1.3Zm-8.28-8.7c0-2.23 0-2.2.33-2.55.35-.37.07-.34 4.27-.34 2.63 0 3.73 0 3.84.04.23.07.5.32.64.57l.12.23.01 2 .01 1.98h-9.22v-1.93Z"/></svg>
